<svg width="83" height="89" viewBox="0 0 83 89" fill="none" xmlns="http://www.w3.org/2000/svg">
<g filter="url(#filter0_d_0_186)">
<path d="M13 18.1429V18.8997C13 24.6857 16.0033 30.0751 20.9719 33.2041H46.0281C50.9967 30.0751 54 24.6857 54 18.8997V18.1429H13Z" fill="#C7A17A"/>
<path fill-rule="evenodd" clip-rule="evenodd" d="M71.2574 0.069397C75.5271 0.069397 78.9994 3.55583 78.9994 7.84293C78.9994 11.2205 76.8406 14.0929 73.8381 15.163V80.3946H9.32193C6.47548 80.3946 4.16064 78.0703 4.16064 75.2123C4.16064 72.3542 6.47548 70.0299 9.32193 70.0299H19.7877C18.6445 68.9079 17.8032 67.4828 17.3787 65.8866L13.7335 64.6688C11.0948 63.7852 9.32193 61.3145 9.32193 58.5225V50.4458C9.32193 47.6538 11.0935 45.1844 13.7323 44.3008L17.0639 43.1866V42.8238C17.0639 42.2525 17.1942 41.7135 17.4161 41.2251C15.7077 40.5786 14.4832 38.9319 14.4832 36.9937C14.4832 34.9324 15.8677 33.208 17.7452 32.6586C14.0394 29.1372 11.9026 24.2347 11.9026 18.9889V15.6165C7.6329 15.6165 4.16064 12.13 4.16064 7.84293C4.16064 3.55583 7.6329 0.069397 11.9026 0.069397H28.6768H41.58H58.3542H71.2574ZM42.8703 3.95616C42.8703 3.2423 42.291 2.66058 41.58 2.66058H28.6768C27.9658 2.66058 27.3865 3.2423 27.3865 3.95616C27.3865 4.67003 27.9658 5.25175 28.6768 5.25175H41.58C42.291 5.25175 42.8703 4.67003 42.8703 3.95616ZM6.74129 7.84293C6.74129 4.98486 9.05613 2.66058 11.9026 2.66058H25.0432C24.8987 3.06739 24.8058 3.50012 24.8058 3.95616C24.8058 6.09907 26.5426 7.84293 28.6768 7.84293H41.58C43.7142 7.84293 45.451 6.09907 45.451 3.95616C45.451 3.50012 45.3581 3.06739 45.2136 2.66058H58.3542C61.2006 2.66058 63.5155 4.98486 63.5155 7.84293C63.5155 10.701 61.2006 13.0253 58.3542 13.0253H11.9026C9.05613 13.0253 6.74129 10.701 6.74129 7.84293ZM58.3542 33.7547H63.5155V28.5724H58.3542V33.7547ZM58.3542 44.1194H63.5155V49.3018H58.3542V44.1194ZM58.3542 41.5283H63.5155V36.3459H58.3542V41.5283ZM55.7735 25.9812V33.7547V44.1194V51.893H63.5155V70.0312H47.8884C49.5658 68.3832 50.6123 66.09 50.6123 63.5533V42.8238C50.6123 42.2525 50.4819 41.7135 50.26 41.2251C51.9684 40.5773 53.1929 38.9319 53.1929 36.9937C53.1929 34.9337 51.8084 33.2093 49.931 32.6586C53.6368 29.1359 55.7735 24.2334 55.7735 18.9889V15.6165H58.3542H63.5155V25.9812H55.7735ZM53.1929 18.9889V15.6165H14.4832V18.9889C14.4832 20.0474 14.6148 21.08 14.8097 22.0944H20.9348C24.4923 22.0944 27.3865 25.0004 27.3865 28.5724V32.4591H46.0355C50.5168 29.4313 53.1929 24.4291 53.1929 18.9889ZM15.5181 24.6856H20.9348C23.069 24.6856 24.8058 26.4295 24.8058 28.5724V32.4591H21.6406C18.7929 30.5339 16.6806 27.8144 15.5181 24.6856ZM48.6768 35.0503H18.9994C17.9323 35.0503 17.0639 35.9222 17.0639 36.9937C17.0639 38.0651 17.9323 38.9371 18.9994 38.9371H48.6768C49.7439 38.9371 50.6123 38.0651 50.6123 36.9937C50.6123 35.9222 49.7439 35.0503 48.6768 35.0503ZM11.9026 58.5225V50.4458C11.9026 48.7706 12.9658 47.2884 14.549 46.7572L17.0639 45.9164V63.0532L14.549 62.2123C12.9658 61.6798 11.9026 60.1977 11.9026 58.5225ZM19.6445 42.8238V63.5533C19.6445 67.1252 22.5387 70.0312 26.0961 70.0312H41.58C45.1374 70.0312 48.0316 67.1252 48.0316 63.5533V42.8238C48.0316 42.1087 47.4523 41.5283 46.7413 41.5283H20.9348C20.2239 41.5283 19.6445 42.1087 19.6445 42.8238ZM71.2574 77.8047H9.32193C7.89871 77.8047 6.74129 76.6426 6.74129 75.2136C6.74129 73.7845 7.89871 72.6224 9.32193 72.6224H26.0961H41.58H66.0961V51.893V44.1194V33.7547V25.9812V15.6165H71.2574V77.8047ZM64.109 13.0253H71.2574C74.1039 13.0253 76.4187 10.701 76.4187 7.84293C76.4187 4.98486 74.1039 2.66058 71.2574 2.66058H64.109C65.34 4.03779 66.0961 5.85032 66.0961 7.84293C66.0961 9.83555 65.34 11.6481 64.109 13.0253Z" fill="#151D28"/>
<rect x="42.8703" y="44.1194" width="2.58065" height="2.59118" fill="#333333"/>
<rect x="22.2252" y="44.1194" width="18.0645" height="2.59118" fill="#333333"/>
</g>
<defs>
<filter id="filter0_d_0_186" x="0.160645" y="0.069397" width="82.8387" height="88.3253" filterUnits="userSpaceOnUse" color-interpolation-filters="sRGB">
<feFlood flood-opacity="0" result="BackgroundImageFix"/>
<feColorMatrix in="SourceAlpha" type="matrix" values="0 0 0 0 0 0 0 0 0 0 0 0 0 0 0 0 0 0 127 0" result="hardAlpha"/>
<feOffset dy="4"/>
<feGaussianBlur stdDeviation="2"/>
<feComposite in2="hardAlpha" operator="out"/>
<feColorMatrix type="matrix" values="0 0 0 0 0 0 0 0 0 0 0 0 0 0 0 0 0 0 0.25 0"/>
<feBlend mode="normal" in2="BackgroundImageFix" result="effect1_dropShadow_0_186"/>
<feBlend mode="normal" in="SourceGraphic" in2="effect1_dropShadow_0_186" result="shape"/>
</filter>
</defs>
</svg>
