<svg width="26" height="26" viewBox="0 0 26 26" fill="none" xmlns="http://www.w3.org/2000/svg">
<g filter="url(#filter0_d_0_229)">
<path d="M5.31755 1.66388H18.7273C18.7677 1.66388 18.8045 1.67932 18.8424 1.69091L19.172 0.589594C19.2768 0.239363 19.5945 0 19.9546 0H21.5909C21.8168 0 22 0.186249 22 0.41598V1.2479C22 1.47763 21.8168 1.66388 21.5909 1.66388H20.5606L18.0045 10.2046L18.9592 11.337C19.3365 11.7846 19.5064 12.4013 19.3327 12.9637C19.1106 13.683 18.4863 14.1429 17.7664 14.1429H6.04544C5.81951 14.1429 5.63634 13.9566 5.63634 13.7269V12.895C5.63634 12.6652 5.81951 12.479 6.04544 12.479H17.7665L16.4697 10.9406C16.4371 10.9019 16.4131 10.8583 16.3884 10.8151H8.46083C7.82675 10.8151 7.24974 10.4428 6.97974 9.8594L4.12503 3.69125C4.04315 3.51374 4 3.31673 4 3.12131V3.0035C4 2.26369 4.5899 1.66388 5.31755 1.66388Z" fill="#F9FBFF"/>
<path d="M17.1786 18.0001C16.291 18.0001 15.5714 17.2805 15.5714 16.3929C15.5714 15.5053 16.291 14.7858 17.1786 14.7858C18.0662 14.7858 18.7857 15.5053 18.7857 16.3929C18.7857 17.2805 18.0662 18.0001 17.1786 18.0001Z" fill="white"/>
<path d="M7.53574 18.0001C6.64814 18.0001 5.9286 17.2805 5.9286 16.3929C5.9286 15.5053 6.64814 14.7858 7.53574 14.7858C8.42334 14.7858 9.14288 15.5053 9.14288 16.3929C9.14288 17.2805 8.42334 18.0001 7.53574 18.0001Z" fill="white"/>
</g>
<defs>
<filter id="filter0_d_0_229" x="0" y="0" width="26" height="26" filterUnits="userSpaceOnUse" color-interpolation-filters="sRGB">
<feFlood flood-opacity="0" result="BackgroundImageFix"/>
<feColorMatrix in="SourceAlpha" type="matrix" values="0 0 0 0 0 0 0 0 0 0 0 0 0 0 0 0 0 0 127 0" result="hardAlpha"/>
<feOffset dy="4"/>
<feGaussianBlur stdDeviation="2"/>
<feComposite in2="hardAlpha" operator="out"/>
<feColorMatrix type="matrix" values="0 0 0 0 0 0 0 0 0 0 0 0 0 0 0 0 0 0 0.25 0"/>
<feBlend mode="normal" in2="BackgroundImageFix" result="effect1_dropShadow_0_229"/>
<feBlend mode="normal" in="SourceGraphic" in2="effect1_dropShadow_0_229" result="shape"/>
</filter>
</defs>
</svg>
